<?xml version="1.0" standalone="no"?>
<svg xmlns:xlink="http://www.w3.org/1999/xlink" id="wave" style="transform:rotate(0deg); transition: 0.3s" viewBox="0 0 1440 250" version="1.1" xmlns="http://www.w3.org/2000/svg"><defs><linearGradient id="sw-gradient-0" x1="0" x2="0" y1="1" y2="0"><stop stop-color="rgba(228, 228, 228, 1)" offset="0%"/><stop stop-color="rgba(228, 228, 228, 1)" offset="100%"/></linearGradient></defs><path style="transform:translate(0, 0px); opacity:1" fill="url(#sw-gradient-0)" d="M0,150L34.3,125C68.6,100,137,50,206,62.5C274.3,75,343,150,411,175C480,200,549,175,617,141.7C685.7,108,754,67,823,70.8C891.4,75,960,125,1029,137.5C1097.1,150,1166,125,1234,116.7C1302.9,108,1371,117,1440,133.3C1508.6,150,1577,175,1646,166.7C1714.3,158,1783,117,1851,87.5C1920,58,1989,42,2057,54.2C2125.7,67,2194,108,2263,133.3C2331.4,158,2400,167,2469,154.2C2537.1,142,2606,108,2674,112.5C2742.9,117,2811,158,2880,158.3C2948.6,158,3017,117,3086,116.7C3154.3,117,3223,158,3291,170.8C3360,183,3429,167,3497,170.8C3565.7,175,3634,200,3703,179.2C3771.4,158,3840,92,3909,62.5C3977.1,33,4046,42,4114,37.5C4182.9,33,4251,17,4320,29.2C4388.6,42,4457,83,4526,91.7C4594.3,100,4663,75,4731,66.7C4800,58,4869,67,4903,70.8L4937.1,75L4937.1,250L4902.9,250C4868.6,250,4800,250,4731,250C4662.9,250,4594,250,4526,250C4457.1,250,4389,250,4320,250C4251.4,250,4183,250,4114,250C4045.7,250,3977,250,3909,250C3840,250,3771,250,3703,250C3634.3,250,3566,250,3497,250C3428.6,250,3360,250,3291,250C3222.9,250,3154,250,3086,250C3017.1,250,2949,250,2880,250C2811.4,250,2743,250,2674,250C2605.7,250,2537,250,2469,250C2400,250,2331,250,2263,250C2194.3,250,2126,250,2057,250C1988.6,250,1920,250,1851,250C1782.9,250,1714,250,1646,250C1577.1,250,1509,250,1440,250C1371.4,250,1303,250,1234,250C1165.7,250,1097,250,1029,250C960,250,891,250,823,250C754.3,250,686,250,617,250C548.6,250,480,250,411,250C342.9,250,274,250,206,250C137.1,250,69,250,34,250L0,250Z"/></svg>