<?xml version="1.0" standalone="no"?>
<svg xmlns:xlink="http://www.w3.org/1999/xlink" id="wave" style="transform:rotate(0deg); transition: 0.3s" viewBox="0 0 1440 330" version="1.1" xmlns="http://www.w3.org/2000/svg"><defs><linearGradient id="sw-gradient-0" x1="0" x2="0" y1="1" y2="0"><stop stop-color="rgba(255, 255, 255, 1)" offset="0%"/><stop stop-color="rgba(198.507, 198.507, 198.507, 1)" offset="100%"/></linearGradient></defs><path style="transform:translate(0, 0px); opacity:1" fill="url(#sw-gradient-0)" d="M0,66L30,60.5C60,55,120,44,180,60.5C240,77,300,121,360,154C420,187,480,209,540,203.5C600,198,660,165,720,154C780,143,840,154,900,132C960,110,1020,55,1080,60.5C1140,66,1200,132,1260,154C1320,176,1380,154,1440,126.5C1500,99,1560,66,1620,49.5C1680,33,1740,33,1800,77C1860,121,1920,209,1980,247.5C2040,286,2100,275,2160,253C2220,231,2280,198,2340,154C2400,110,2460,55,2520,77C2580,99,2640,198,2700,198C2760,198,2820,99,2880,99C2940,99,3000,198,3060,247.5C3120,297,3180,297,3240,297C3300,297,3360,297,3420,275C3480,253,3540,209,3600,203.5C3660,198,3720,231,3780,247.5C3840,264,3900,264,3960,264C4020,264,4080,264,4140,231C4200,198,4260,132,4290,99L4320,66L4320,330L4290,330C4260,330,4200,330,4140,330C4080,330,4020,330,3960,330C3900,330,3840,330,3780,330C3720,330,3660,330,3600,330C3540,330,3480,330,3420,330C3360,330,3300,330,3240,330C3180,330,3120,330,3060,330C3000,330,2940,330,2880,330C2820,330,2760,330,2700,330C2640,330,2580,330,2520,330C2460,330,2400,330,2340,330C2280,330,2220,330,2160,330C2100,330,2040,330,1980,330C1920,330,1860,330,1800,330C1740,330,1680,330,1620,330C1560,330,1500,330,1440,330C1380,330,1320,330,1260,330C1200,330,1140,330,1080,330C1020,330,960,330,900,330C840,330,780,330,720,330C660,330,600,330,540,330C480,330,420,330,360,330C300,330,240,330,180,330C120,330,60,330,30,330L0,330Z"/><defs><linearGradient id="sw-gradient-1" x1="0" x2="0" y1="1" y2="0"><stop stop-color="rgba(255, 255, 255, 1)" offset="0%"/><stop stop-color="rgba(173.463, 173.463, 173.463, 1)" offset="100%"/></linearGradient></defs><path style="transform:translate(0, 50px); opacity:0.9" fill="url(#sw-gradient-1)" d="M0,66L30,60.5C60,55,120,44,180,60.5C240,77,300,121,360,121C420,121,480,77,540,49.5C600,22,660,11,720,22C780,33,840,66,900,77C960,88,1020,77,1080,77C1140,77,1200,88,1260,82.5C1320,77,1380,55,1440,60.5C1500,66,1560,99,1620,110C1680,121,1740,110,1800,121C1860,132,1920,165,1980,154C2040,143,2100,88,2160,104.5C2220,121,2280,209,2340,203.5C2400,198,2460,99,2520,82.5C2580,66,2640,132,2700,165C2760,198,2820,198,2880,181.5C2940,165,3000,132,3060,143C3120,154,3180,209,3240,220C3300,231,3360,198,3420,176C3480,154,3540,143,3600,154C3660,165,3720,198,3780,209C3840,220,3900,209,3960,176C4020,143,4080,88,4140,77C4200,66,4260,99,4290,115.5L4320,132L4320,330L4290,330C4260,330,4200,330,4140,330C4080,330,4020,330,3960,330C3900,330,3840,330,3780,330C3720,330,3660,330,3600,330C3540,330,3480,330,3420,330C3360,330,3300,330,3240,330C3180,330,3120,330,3060,330C3000,330,2940,330,2880,330C2820,330,2760,330,2700,330C2640,330,2580,330,2520,330C2460,330,2400,330,2340,330C2280,330,2220,330,2160,330C2100,330,2040,330,1980,330C1920,330,1860,330,1800,330C1740,330,1680,330,1620,330C1560,330,1500,330,1440,330C1380,330,1320,330,1260,330C1200,330,1140,330,1080,330C1020,330,960,330,900,330C840,330,780,330,720,330C660,330,600,330,540,330C480,330,420,330,360,330C300,330,240,330,180,330C120,330,60,330,30,330L0,330Z"/><defs><linearGradient id="sw-gradient-2" x1="0" x2="0" y1="1" y2="0"><stop stop-color="rgba(255, 255, 255, 1)" offset="0%"/><stop stop-color="rgba(175.739, 175.739, 175.739, 1)" offset="100%"/></linearGradient></defs><path style="transform:translate(0, 100px); opacity:0.8" fill="url(#sw-gradient-2)" d="M0,33L30,66C60,99,120,165,180,209C240,253,300,275,360,280.5C420,286,480,275,540,275C600,275,660,286,720,253C780,220,840,143,900,110C960,77,1020,88,1080,115.5C1140,143,1200,187,1260,192.5C1320,198,1380,165,1440,176C1500,187,1560,242,1620,264C1680,286,1740,275,1800,242C1860,209,1920,154,1980,137.5C2040,121,2100,143,2160,176C2220,209,2280,253,2340,247.5C2400,242,2460,187,2520,187C2580,187,2640,242,2700,269.5C2760,297,2820,297,2880,286C2940,275,3000,253,3060,231C3120,209,3180,187,3240,154C3300,121,3360,77,3420,49.5C3480,22,3540,11,3600,11C3660,11,3720,22,3780,55C3840,88,3900,143,3960,137.5C4020,132,4080,66,4140,66C4200,66,4260,132,4290,165L4320,198L4320,330L4290,330C4260,330,4200,330,4140,330C4080,330,4020,330,3960,330C3900,330,3840,330,3780,330C3720,330,3660,330,3600,330C3540,330,3480,330,3420,330C3360,330,3300,330,3240,330C3180,330,3120,330,3060,330C3000,330,2940,330,2880,330C2820,330,2760,330,2700,330C2640,330,2580,330,2520,330C2460,330,2400,330,2340,330C2280,330,2220,330,2160,330C2100,330,2040,330,1980,330C1920,330,1860,330,1800,330C1740,330,1680,330,1620,330C1560,330,1500,330,1440,330C1380,330,1320,330,1260,330C1200,330,1140,330,1080,330C1020,330,960,330,900,330C840,330,780,330,720,330C660,330,600,330,540,330C480,330,420,330,360,330C300,330,240,330,180,330C120,330,60,330,30,330L0,330Z"/></svg>