<?xml version="1.0" standalone="no"?>
<svg xmlns:xlink="http://www.w3.org/1999/xlink" id="wave" style="transform:rotate(0deg); transition: 0.3s" viewBox="0 0 1440 250" version="1.1" xmlns="http://www.w3.org/2000/svg"><defs><linearGradient id="sw-gradient-0" x1="0" x2="0" y1="1" y2="0"><stop stop-color="rgba(228, 228, 228, 1)" offset="0%"/><stop stop-color="rgba(228, 228, 228, 1)" offset="100%"/></linearGradient></defs><path style="transform:translate(0, 0px); opacity:1" fill="url(#sw-gradient-0)" d="M0,125L34.3,137.5C68.6,150,137,175,206,154.2C274.3,133,343,67,411,58.3C480,50,549,100,617,108.3C685.7,117,754,83,823,70.8C891.4,58,960,67,1029,87.5C1097.1,108,1166,142,1234,145.8C1302.9,150,1371,125,1440,112.5C1508.6,100,1577,100,1646,87.5C1714.3,75,1783,50,1851,54.2C1920,58,1989,92,2057,120.8C2125.7,150,2194,175,2263,183.3C2331.4,192,2400,183,2469,187.5C2537.1,192,2606,208,2674,187.5C2742.9,167,2811,108,2880,75C2948.6,42,3017,33,3086,29.2C3154.3,25,3223,25,3291,45.8C3360,67,3429,108,3497,116.7C3565.7,125,3634,100,3703,100C3771.4,100,3840,125,3909,145.8C3977.1,167,4046,183,4114,183.3C4182.9,183,4251,167,4320,133.3C4388.6,100,4457,50,4526,37.5C4594.3,25,4663,50,4731,62.5C4800,75,4869,75,4903,75L4937.1,75L4937.1,250L4902.9,250C4868.6,250,4800,250,4731,250C4662.9,250,4594,250,4526,250C4457.1,250,4389,250,4320,250C4251.4,250,4183,250,4114,250C4045.7,250,3977,250,3909,250C3840,250,3771,250,3703,250C3634.3,250,3566,250,3497,250C3428.6,250,3360,250,3291,250C3222.9,250,3154,250,3086,250C3017.1,250,2949,250,2880,250C2811.4,250,2743,250,2674,250C2605.7,250,2537,250,2469,250C2400,250,2331,250,2263,250C2194.3,250,2126,250,2057,250C1988.6,250,1920,250,1851,250C1782.9,250,1714,250,1646,250C1577.1,250,1509,250,1440,250C1371.4,250,1303,250,1234,250C1165.7,250,1097,250,1029,250C960,250,891,250,823,250C754.3,250,686,250,617,250C548.6,250,480,250,411,250C342.9,250,274,250,206,250C137.1,250,69,250,34,250L0,250Z"/></svg>