<?xml version="1.0" standalone="no"?>
<svg xmlns:xlink="http://www.w3.org/1999/xlink" id="wave" style="transform:rotate(0deg); transition: 0.3s" viewBox="0 0 1440 220" version="1.1" xmlns="http://www.w3.org/2000/svg"><defs><linearGradient id="sw-gradient-0" x1="0" x2="0" y1="1" y2="0"><stop stop-color="rgba(255, 255, 255, 1)" offset="0%"/><stop stop-color="rgba(255, 255, 255, 1)" offset="100%"/></linearGradient></defs><path style="transform:translate(0, 0px); opacity:1" fill="url(#sw-gradient-0)" d="M0,154L30,135.7C60,117,120,81,180,58.7C240,37,300,29,360,33C420,37,480,51,540,77C600,103,660,139,720,146.7C780,154,840,132,900,135.7C960,139,1020,169,1080,168.7C1140,169,1200,139,1260,110C1320,81,1380,51,1440,62.3C1500,73,1560,125,1620,139.3C1680,154,1740,132,1800,113.7C1860,95,1920,81,1980,91.7C2040,103,2100,139,2160,139.3C2220,139,2280,103,2340,73.3C2400,44,2460,22,2520,25.7C2580,29,2640,59,2700,80.7C2760,103,2820,117,2880,117.3C2940,117,3000,103,3060,113.7C3120,125,3180,161,3240,150.3C3300,139,3360,81,3420,55C3480,29,3540,37,3600,36.7C3660,37,3720,29,3780,44C3840,59,3900,95,3960,110C4020,125,4080,117,4140,117.3C4200,117,4260,125,4290,128.3L4320,132L4320,220L4290,220C4260,220,4200,220,4140,220C4080,220,4020,220,3960,220C3900,220,3840,220,3780,220C3720,220,3660,220,3600,220C3540,220,3480,220,3420,220C3360,220,3300,220,3240,220C3180,220,3120,220,3060,220C3000,220,2940,220,2880,220C2820,220,2760,220,2700,220C2640,220,2580,220,2520,220C2460,220,2400,220,2340,220C2280,220,2220,220,2160,220C2100,220,2040,220,1980,220C1920,220,1860,220,1800,220C1740,220,1680,220,1620,220C1560,220,1500,220,1440,220C1380,220,1320,220,1260,220C1200,220,1140,220,1080,220C1020,220,960,220,900,220C840,220,780,220,720,220C660,220,600,220,540,220C480,220,420,220,360,220C300,220,240,220,180,220C120,220,60,220,30,220L0,220Z"/></svg>