<?xml version="1.0" standalone="no"?>
<svg xmlns:xlink="http://www.w3.org/1999/xlink" id="wave" style="transform:rotate(0deg); transition: 0.3s" viewBox="0 0 1440 250" version="1.1" xmlns="http://www.w3.org/2000/svg"><defs><linearGradient id="sw-gradient-0" x1="0" x2="0" y1="1" y2="0"><stop stop-color="rgba(255, 248.432, 248.432, 1)" offset="0%"/><stop stop-color="rgba(255, 255, 255, 1)" offset="100%"/></linearGradient></defs><path style="transform:translate(0, 0px); opacity:1" fill="url(#sw-gradient-0)" d="M0,0L34.3,29.2C68.6,58,137,117,206,120.8C274.3,125,343,75,411,75C480,75,549,125,617,158.3C685.7,192,754,208,823,216.7C891.4,225,960,225,1029,195.8C1097.1,167,1166,108,1234,83.3C1302.9,58,1371,67,1440,79.2C1508.6,92,1577,108,1646,129.2C1714.3,150,1783,175,1851,187.5C1920,200,1989,200,2057,170.8C2125.7,142,2194,83,2263,87.5C2331.4,92,2400,158,2469,183.3C2537.1,208,2606,192,2674,187.5C2742.9,183,2811,192,2880,183.3C2948.6,175,3017,150,3086,141.7C3154.3,133,3223,142,3291,120.8C3360,100,3429,50,3497,29.2C3565.7,8,3634,17,3703,45.8C3771.4,75,3840,125,3909,129.2C3977.1,133,4046,92,4114,95.8C4182.9,100,4251,150,4320,145.8C4388.6,142,4457,83,4526,50C4594.3,17,4663,8,4731,8.3C4800,8,4869,17,4903,20.8L4937.1,25L4937.1,250L4902.9,250C4868.6,250,4800,250,4731,250C4662.9,250,4594,250,4526,250C4457.1,250,4389,250,4320,250C4251.4,250,4183,250,4114,250C4045.7,250,3977,250,3909,250C3840,250,3771,250,3703,250C3634.3,250,3566,250,3497,250C3428.6,250,3360,250,3291,250C3222.9,250,3154,250,3086,250C3017.1,250,2949,250,2880,250C2811.4,250,2743,250,2674,250C2605.7,250,2537,250,2469,250C2400,250,2331,250,2263,250C2194.3,250,2126,250,2057,250C1988.6,250,1920,250,1851,250C1782.9,250,1714,250,1646,250C1577.1,250,1509,250,1440,250C1371.4,250,1303,250,1234,250C1165.7,250,1097,250,1029,250C960,250,891,250,823,250C754.3,250,686,250,617,250C548.6,250,480,250,411,250C342.9,250,274,250,206,250C137.1,250,69,250,34,250L0,250Z"/></svg>